<svg xmlns="http://www.w3.org/2000/svg" xmlns:xlink="http://www.w3.org/1999/xlink" version="1.1" x="0px" y="0px" viewBox="0 0 512 640" enable-background="new 0 0 512 512" xml:space="preserve"><g><g><path d="M195.256,259.203c-5.739,0-10.408,4.699-10.408,10.474c0,5.776,4.669,10.475,10.408,10.475    c5.739,0,10.408-4.699,10.408-10.475C205.664,263.901,200.995,259.203,195.256,259.203z"/><path d="M316.049,259.203c-5.739,0-10.408,4.699-10.408,10.474c0,5.776,4.669,10.475,10.408,10.475    c5.739,0,10.408-4.699,10.408-10.475C326.457,263.901,321.788,259.203,316.049,259.203z"/><path d="M453.454,251.709c-5.74-34.426-17.037-67.266-25.688-84.539c-16.786-33.519-59.937-56.578-106.166-67.967    C303.527,93.704,281.819,91,256,91c-25.852,0-47.583,2.71-65.67,8.224c-12.685,3.134-24.976,7.106-36.384,11.829    c-23.921,9.904-55.425,27.679-69.666,56.117c-8.648,17.271-19.945,50.084-25.689,84.458c-4.833,28.926-7.271,68.788,8.564,94.427    c10.017,16.218,25.748,24.631,46.744,25.069c3.608,6.549,7.839,12.426,12.709,17.653C147.437,411.133,179.887,422,225.812,422    h60.378c45.925,0,78.375-10.867,99.204-33.223c4.831-5.185,9.035-11.008,12.623-17.494c21.043-0.407,36.809-8.821,46.846-25.072    C460.708,320.555,458.281,280.659,453.454,251.709z M77.365,339.749c-7.66-12.401-15.081-37.413-6.938-86.143    c5.538-33.144,16.337-64.595,24.583-81.062c8.484-16.943,25.358-31.231,46.462-42.365c-12.578,15.661-19.108,35.967-19.458,60.71    c-20.759,27.065-23.904,76.737-23.904,104.309c0,25.228,3.303,46.282,10.019,63.534C94.358,357.123,84.241,350.882,77.365,339.749    z M256.001,359.322c-20.572,0-24.189-1.728-24.189-11.557c0-5.455,10.345-11.557,24.189-11.557    c13.844,0,24.189,6.102,24.189,11.557C280.19,357.594,276.573,359.322,256.001,359.322z M286.19,410H262v-38.721    c14.697-0.304,30.19-2.814,30.19-23.514c0-13.209-15.896-23.557-36.189-23.557s-36.189,10.347-36.189,23.557    c0,20.698,15.491,23.209,30.188,23.514V410h-24.188c-81.099,0-115.701-34.334-115.701-114.804    c0-64.164,15.747-90.173,22.517-98.377l1.372-1.663V193c0-33.737,11.807-57.273,36.094-71.954    c6.609-3.995,14.105-7.301,22.506-9.957c19.736-4.949,40.217-7.711,59.418-8.049c1.324-0.015,2.633-0.04,3.981-0.04    c1.35,0,2.659,0.024,3.984,0.04c19.173,0.338,39.623,3.091,59.332,8.024c8.435,2.661,15.958,5.974,22.589,9.982    C366.193,135.727,378,159.263,378,193v2.156l1.372,1.663c6.771,8.205,22.52,34.216,22.52,98.377    C401.892,375.666,367.29,410,286.19,410z M434.653,339.905c-6.894,11.161-17.036,17.406-30.849,18.995    c6.761-17.285,10.087-38.393,10.087-63.704c0-27.57-3.145-77.242-23.906-104.309c-0.35-24.761-6.889-45.079-19.485-60.744    c21.14,11.139,38.044,25.439,46.537,42.399c8.247,16.469,19.046,47.945,24.581,81.14    C449.75,302.459,442.319,327.493,434.653,339.905z"/><path d="M219.106,234.863c-1.282-0.616-31.674-14.792-57.784,10.473c-2.381,2.304-2.444,6.103-0.14,8.484    c1.177,1.216,2.744,1.828,4.312,1.828c1.502,0,3.007-0.561,4.172-1.688c19.997-19.351,43.282-8.732,44.24-8.282    c2.986,1.435,6.571,0.177,8.007-2.808C223.35,239.884,222.092,236.299,219.106,234.863z"/><path d="M292.894,234.863c-2.978,1.432-4.226,4.995-2.807,7.979c1.419,2.984,4.994,4.254,7.983,2.848    c0.982-0.461,24.266-11.08,44.263,8.271c1.165,1.127,2.669,1.688,4.172,1.688c1.568,0,3.135-0.611,4.312-1.828    c2.304-2.381,2.242-6.18-0.14-8.484C324.567,220.072,294.175,234.247,292.894,234.863z"/></g></g><text x="0" y="527" fill="#000000" font-size="5px" font-weight="bold" font-family="'Helvetica Neue', Helvetica, Arial-Unicode, Arial, Sans-serif">Created by Richard Schumann</text><text x="0" y="532" fill="#000000" font-size="5px" font-weight="bold" font-family="'Helvetica Neue', Helvetica, Arial-Unicode, Arial, Sans-serif">from the Noun Project</text></svg>